<?xml version="1.0" encoding="UTF-8" standalone="no"?><!DOCTYPE svg PUBLIC "-//W3C//DTD SVG 1.1//EN" "http://www.w3.org/Graphics/SVG/1.1/DTD/svg11.dtd"><svg width="100%" height="100%" viewBox="0 0 1920 405" version="1.1" xmlns="http://www.w3.org/2000/svg" xmlns:xlink="http://www.w3.org/1999/xlink" xml:space="preserve" xmlns:serif="http://www.serif.com/" style="fill-rule:evenodd;clip-rule:evenodd;stroke-linejoin:round;stroke-miterlimit:2;"><path id="path46" d="M421.595,170.32l0,104.075c0,23.451 3.547,40.115 10.642,49.991c7.098,9.874 19.134,14.81 36.106,14.81c16.972,0 29.004,-4.936 36.099,-14.81c7.099,-9.876 10.649,-26.54 10.649,-49.991l0,-104.075c0,-4.858 3.997,-8.856 8.855,-8.856l64.205,0c4.858,0 8.856,3.998 8.856,8.856l0,123.976c0,39.497 -10.262,67.961 -30.782,85.393c-20.517,17.433 -53.146,26.148 -97.889,26.148c-44.739,0 -77.365,-8.715 -97.882,-26.148c-20.516,-17.432 -30.775,-45.896 -30.775,-85.393l0,-123.976c0,-4.858 3.998,-8.856 8.856,-8.856l64.205,0c4.858,0 8.855,3.998 8.855,8.856Z" style="fill:#0e1340;fill-rule:nonzero;"/><path id="path49" d="M621.541,390.215l0,-220.067c0,-4.764 3.92,-8.683 8.683,-8.683l64.557,-0c4.764,-0 8.683,3.919 8.683,8.683l0,16.309l0.924,-0c21.287,-21.286 43.966,-31.932 68.038,-31.932c17.276,-0 33.474,3.551 48.595,10.649c15.119,7.095 26.536,18.046 34.251,32.855c24.066,-29.002 50.293,-43.504 78.68,-43.504c25.302,-0 47.055,7.097 65.259,21.291c18.203,14.193 27.305,36.41 27.305,66.648l0,147.751c0,4.764 -3.919,8.683 -8.683,8.683l-64.556,-0c-4.764,-0 -8.684,-3.919 -8.684,-8.683l0,-125.537c0,-12.65 -3.473,-23.22 -10.415,-31.706c-6.94,-8.486 -17.352,-12.729 -31.234,-12.729c-12.036,0 -21.218,3.627 -27.545,10.881c-6.323,7.251 -9.793,15.966 -10.409,26.149l0,132.942c0,4.764 -3.919,8.683 -8.683,8.683l-64.556,0c-4.764,0 -8.684,-3.919 -8.684,-8.683l0,-125.537c0,-12.65 -3.473,-23.22 -10.416,-31.706c-6.939,-8.486 -17.353,-12.729 -31.24,-12.729c-12.652,0 -22.139,3.935 -28.462,11.805c-6.323,7.87 -9.485,17.204 -9.485,28.003l0,130.164c0,4.764 -3.919,8.683 -8.683,8.683l-64.557,-0c-4.763,-0 -8.683,-3.919 -8.683,-8.683Z" style="fill:#0e1340;fill-rule:nonzero;"/><path id="path52" d="M1058.91,29.099c9.568,-9.568 20.984,-14.351 34.252,-14.351c13.266,0 24.684,4.783 34.251,14.351c9.568,9.563 14.351,20.98 14.351,34.251c0,13.268 -4.783,24.685 -14.351,34.252c-9.567,9.563 -20.985,14.343 -34.251,14.343c-13.268,0 -24.684,-4.78 -34.252,-14.343c-9.563,-9.567 -14.344,-20.984 -14.344,-34.252c0,-13.271 4.781,-24.688 14.344,-34.251Zm-7.863,140.768l0,220.629c0,4.61 3.793,8.402 8.402,8.402l65.119,0c4.609,0 8.402,-3.792 8.402,-8.402l0,-220.629c0,-4.609 -3.793,-8.402 -8.402,-8.402l-65.119,0c-4.609,0 -8.402,3.793 -8.402,8.402Z" style="fill:#f41823;fill-rule:nonzero;"/><path id="path55" d="M1164.44,390.668l0,-381.576c0,-4.515 3.715,-8.23 8.23,-8.23l65.463,0c4.515,0 8.23,3.715 8.23,8.23l0,381.576c0,4.515 -3.715,8.23 -8.23,8.23l-65.463,0c-4.515,0 -8.23,-3.715 -8.23,-8.23Z" style="fill:#f41823;fill-rule:nonzero;"/><path id="path58" d="M1505.74,291.524l-152.202,0c-5.513,0 -10.099,4.503 -9.265,9.948c1.794,11.718 6.955,20.743 15.481,27.075c10.798,8.021 22.523,12.031 35.175,12.031c13.266,0 23.755,-1.772 31.466,-5.317c5.829,-2.682 12.276,-7.345 19.341,-13.99c4.015,-3.776 11.045,-5.069 15.977,-2.603l41.378,20.689c4.932,2.466 6.671,8.331 3.506,12.843c-25.085,35.759 -64.315,53.637 -117.69,53.637c-35.792,0 -66.491,-12.263 -92.1,-36.79c-25.608,-24.53 -38.412,-54.074 -38.412,-88.63c0,-34.559 12.804,-64.179 38.412,-88.862c25.609,-24.686 56.308,-37.03 92.1,-37.03c37.642,0 68.267,10.878 91.873,32.63c23.605,21.753 35.408,52.838 35.408,93.255c0,0.393 0,0.776 -0.004,1.15c-0.023,5.509 -4.933,9.964 -10.446,9.964l0.002,0Zm-149.889,-45.358l70.286,0c5.513,0 9.438,-4.48 7.714,-9.71c-2.547,-7.728 -6.652,-13.978 -12.315,-18.752c-7.866,-6.638 -17.969,-9.957 -30.309,-9.957c-13.578,0 -24.38,3.55 -32.404,10.648c-5.577,4.934 -9.364,10.913 -11.361,17.937c-1.505,5.292 2.876,9.834 8.389,9.834Z" style="fill:#f41823;fill-rule:nonzero;"/><path id="path61" d="M1512.03,171.333c-1.935,-2.895 -2.257,-5.355 -0.967,-7.382c1.29,-2.026 3.87,-3.041 7.74,-3.041l81.752,0c5.482,0 9.836,2.317 13.061,6.95l159.151,219.3c1.935,2.897 2.096,5.357 0.483,7.383c-1.612,2.027 -4.353,3.04 -8.223,3.04l-81.752,0c-3.225,0 -5.644,-0.578 -7.256,-1.736c-1.613,-1.159 -3.226,-2.895 -4.838,-5.212l-159.151,-219.302Zm159.151,-3.473c3.225,-4.633 7.579,-6.95 13.061,-6.95l78.85,0c3.87,0 6.45,1.015 7.74,3.041c1.612,2.027 1.29,4.487 -0.968,7.382l-59.501,87.721c-1.935,2.606 -4.191,4.053 -6.771,4.342c-2.257,0.289 -4.515,-1.012 -6.772,-3.907l-38.215,-52.98c-1.614,-2.317 -2.58,-4.488 -2.904,-6.514c-0.321,-2.316 0.324,-4.633 1.935,-6.949l13.545,-25.186Zm-64.821,222.775c-3.225,4.631 -7.579,6.948 -13.061,6.948l-79.817,0c-3.87,0 -6.612,-1.013 -8.224,-3.04c-1.29,-2.026 -0.806,-4.486 1.451,-7.383l66.274,-89.457c1.933,-2.606 4.03,-4.053 6.287,-4.342c2.58,-0.29 4.999,1.012 7.256,3.909l39.184,53.413c1.611,2.316 2.58,4.633 2.901,6.948c0.324,2.027 -0.321,4.198 -1.935,6.515l-20.316,26.489Z" style="fill:#f41823;"/><path id="path62" d="M1.409,12.967c-1.691,-3.718 -1.86,-6.59 -0.508,-8.618c1.69,-2.366 4.564,-3.548 8.621,-3.548l91.275,0c6.083,0 10.309,2.703 12.675,8.111l99.896,204.808l0,-203.287c0,-6.421 3.379,-9.632 10.14,-9.632l80.626,0c7.099,0 10.649,3.211 10.649,9.632l0,381.228c0,1.353 -0.339,2.366 -1.015,3.042c-1.351,3.042 -4.226,4.563 -8.619,4.563l-86.204,0c-6.085,0 -10.311,-2.703 -12.677,-8.112l-204.859,-378.185l0,-0.002Zm-1.014,57.287c0,-3.718 1.859,-5.915 5.577,-6.591c3.719,-0.676 6.422,0.845 8.113,4.563l83.161,153.605c1.691,3.381 2.873,6.592 3.551,9.632c0.675,2.705 1.012,5.747 1.012,9.126l0,148.537c0,6.421 -3.381,9.632 -10.14,9.632l-80.626,0c-7.099,0 -10.648,-3.211 -10.648,-9.632l0,-318.872Z" style="fill:#0e1340;fill-rule:nonzero;"/><g id="New-Numilex-N" serif:id="New Numilex N"><circle id="Background-circle" serif:id="Background circle" cx="1845.85" cy="86.212" r="75.156" style="fill:#f41823;"/><path id="_----N" serif:id="&lt;/&gt; N" d="M1797.56,46.215c-0.718,-1.073 -0.837,-1.985 -0.359,-2.736c0.478,-0.751 1.435,-1.127 2.869,-1.127l30.3,-0c2.032,-0 3.646,0.859 4.841,2.576l58.988,81.281c0.717,1.074 0.777,1.986 0.179,2.736c-0.597,0.752 -1.613,1.127 -3.048,1.127l-30.3,0c-1.196,0 -2.092,-0.214 -2.69,-0.643c-0.597,-0.43 -1.195,-1.073 -1.793,-1.932l-58.987,-81.282Zm2.753,83.857c-1.877,0 -3.399,-1.521 -3.399,-3.398l0,-45.044c0,-1.477 0.952,-2.787 2.357,-3.243c1.405,-0.456 2.945,0.044 3.813,1.24l14.718,20.277c0.422,0.582 0.65,1.283 0.65,2.003l-0,9.165l9.244,0c1.877,0 3.398,1.522 3.398,3.399l0,12.203c0,0.901 -0.358,1.766 -0.995,2.403c-0.638,0.637 -1.502,0.995 -2.403,0.995l-27.383,0Zm91.074,-87.72c1.877,-0 3.399,1.521 3.399,3.398l-0,45.044c-0,1.477 -0.952,2.787 -2.357,3.243c-1.405,0.456 -2.945,-0.044 -3.813,-1.24l-14.718,-20.277c-0.422,-0.582 -0.65,-1.283 -0.65,-2.003l0,-9.165l-9.244,-0c-1.877,-0 -3.398,-1.522 -3.398,-3.399l-0,-12.203c-0,-0.901 0.358,-1.766 0.995,-2.403c0.638,-0.637 1.502,-0.995 2.403,-0.995l27.383,-0Z" style="fill:#fff;"/><g id="Shadow"><g><g id="Dark"><path d="M1818.45,111.072l9.244,0c0.48,0 0.936,0.1 1.35,0.279l-10.594,0l-0,-0.279Zm54.796,-40.555l0,-9.165l0.279,-0l0,10.515c-0.183,-0.424 -0.279,-0.883 -0.279,-1.35Zm-15.241,58.65c-0.487,-0.415 -0.973,-0.971 -1.46,-1.67l-58.987,-81.282c-0.718,-1.073 -0.837,-1.985 -0.359,-2.736c0.478,-0.751 1.435,-1.127 2.869,-1.127l30.3,-0c1.801,-0 3.273,0.674 4.417,2.022c-0.049,-0.041 -0.099,-0.081 -0.148,-0.12c-0.043,-0.053 -0.086,-0.106 -0.13,-0.157c-0.049,-0.041 -0.098,-0.081 -0.148,-0.12c-0.043,-0.054 -0.086,-0.106 -0.13,-0.158c-1.016,-0.854 -2.241,-1.281 -3.674,-1.281l-30.301,-0c-1.434,-0 -2.391,0.376 -2.869,1.127c-0.478,0.751 -0.358,1.663 0.359,2.736l58.987,81.282c0.24,0.344 0.479,0.654 0.719,0.929c0.046,0.039 0.092,0.077 0.139,0.114c0.046,0.056 0.092,0.11 0.138,0.163c0.047,0.04 0.093,0.078 0.139,0.115c0.046,0.055 0.093,0.11 0.139,0.163Zm-59.698,0.252c-0.846,-0.618 -1.395,-1.618 -1.395,-2.745l0,-45.044c0,-1.477 0.952,-2.787 2.357,-3.243c1.402,-0.455 2.937,0.042 3.806,1.231c-0.05,-0.037 -0.101,-0.072 -0.152,-0.105l-0.119,-0.164c-0.002,-0.003 -0.004,-0.006 -0.007,-0.009c-0.05,-0.036 -0.1,-0.071 -0.152,-0.105l-0.118,-0.163c-0.003,-0.003 -0.005,-0.006 -0.007,-0.01c-0.867,-0.633 -2.004,-0.833 -3.065,-0.489c-1.405,0.456 -2.357,1.766 -2.357,3.243l0,45.044c0,0.749 0.243,1.442 0.654,2.004c0.053,0.039 0.108,0.077 0.164,0.113c0.036,0.056 0.074,0.111 0.113,0.164c0.054,0.04 0.109,0.077 0.165,0.113c0.036,0.056 0.074,0.111 0.113,0.165Zm63.691,-68.721c-0.845,-0.618 -1.394,-1.617 -1.394,-2.745l-0,-12.203c-0,-0.901 0.358,-1.766 0.995,-2.403c0.638,-0.637 1.502,-0.995 2.403,-0.995l27.383,-0c1.128,-0 2.127,0.549 2.746,1.394c-0.054,-0.039 -0.109,-0.077 -0.165,-0.113c-0.036,-0.056 -0.074,-0.111 -0.113,-0.164c-0.054,-0.039 -0.109,-0.077 -0.165,-0.113c-0.036,-0.056 -0.073,-0.111 -0.113,-0.165c-0.561,-0.411 -1.254,-0.653 -2.003,-0.653l-27.384,-0c-0.901,-0 -1.765,0.358 -2.403,0.995c-0.637,0.638 -0.995,1.502 -0.995,2.403l0,12.204c0,0.749 0.243,1.442 0.653,2.003c0.054,0.04 0.109,0.077 0.165,0.113c0.036,0.056 0.074,0.111 0.113,0.165c0.054,0.039 0.108,0.077 0.164,0.113c0.037,0.056 0.074,0.111 0.113,0.164Z" style="fill:#b00d0d;fill-opacity:0.5;"/><path d="M1829.56,111.63l-10.831,-0l-0,-0.279l10.315,0c0.181,0.078 0.353,0.172 0.516,0.279Zm43.965,-39.763l0,-10.236l0.279,-0l-0,10.755c-0.108,-0.165 -0.201,-0.339 -0.279,-0.519Zm-75.609,57.11c-0.056,-0.036 -0.111,-0.074 -0.164,-0.113c-0.411,-0.562 -0.654,-1.255 -0.654,-2.004l0,-45.044c0,-1.477 0.952,-2.787 2.357,-3.243c1.061,-0.344 2.198,-0.144 3.065,0.489c0.002,0.004 0.004,0.007 0.007,0.01l0.118,0.163c-0.845,-0.549 -1.913,-0.709 -2.912,-0.384c-1.405,0.456 -2.357,1.765 -2.357,3.243l-0,45.044c-0,0.677 0.198,1.309 0.54,1.839Zm63.692,-68.721c-0.056,-0.036 -0.111,-0.073 -0.165,-0.113c-0.41,-0.561 -0.653,-1.254 -0.653,-2.003l0,-12.204c0,-0.901 0.358,-1.765 0.995,-2.403c0.638,-0.637 1.502,-0.995 2.403,-0.995l27.384,-0c0.749,-0 1.442,0.242 2.003,0.653c0.04,0.054 0.077,0.109 0.113,0.165c-0.53,-0.342 -1.161,-0.541 -1.839,-0.541l-27.383,0c-0.901,0 -1.766,0.359 -2.403,0.996c-0.637,0.637 -0.995,1.502 -0.995,2.403l-0,12.203c-0,0.678 0.198,1.309 0.54,1.839Zm-4.019,68.47c-0.047,-0.037 -0.093,-0.075 -0.139,-0.114c-0.24,-0.275 -0.479,-0.585 -0.719,-0.929l-58.987,-81.282c-0.717,-1.073 -0.837,-1.985 -0.359,-2.736c0.478,-0.751 1.435,-1.127 2.869,-1.127l30.301,-0c1.433,-0 2.658,0.427 3.674,1.281c0.044,0.052 0.087,0.104 0.13,0.158c-0.987,-0.774 -2.163,-1.162 -3.527,-1.162l-30.3,0c-1.435,0 -2.391,0.377 -2.869,1.128c-0.478,0.751 -0.359,1.663 0.358,2.736l58.988,81.282c0.193,0.277 0.386,0.533 0.58,0.765Z" style="fill:#b00d0d;fill-opacity:0.42;"/><path d="M1829.93,111.909l-10.919,-0l-0,-0.279l10.552,-0c0.128,0.085 0.251,0.178 0.367,0.279Zm43.877,-39.523l-0,-10.477l0.279,0l-0,10.868l-0.187,-0.257c-0.031,-0.044 -0.062,-0.089 -0.092,-0.134Zm-75.61,56.868c-0.056,-0.036 -0.111,-0.073 -0.165,-0.113c-0.411,-0.561 -0.653,-1.254 -0.653,-2.003l-0,-45.044c-0,-1.478 0.952,-2.787 2.357,-3.243c1.06,-0.345 2.197,-0.144 3.064,0.489c0.003,0.003 0.005,0.006 0.007,0.009l0.119,0.164c-0.846,-0.55 -1.913,-0.709 -2.913,-0.385c-1.405,0.456 -2.357,1.766 -2.357,3.243l0,45.044c0,0.678 0.199,1.309 0.541,1.839Zm63.691,-68.72c-0.056,-0.036 -0.11,-0.074 -0.164,-0.113c-0.411,-0.562 -0.653,-1.255 -0.653,-2.004l-0,-12.203c-0,-0.901 0.358,-1.766 0.995,-2.403c0.637,-0.637 1.502,-0.996 2.403,-0.996l27.383,0c0.749,0 1.442,0.243 2.004,0.654c0.039,0.053 0.077,0.108 0.113,0.164c-0.53,-0.342 -1.162,-0.54 -1.839,-0.54l-27.383,0c-0.902,0 -1.766,0.358 -2.403,0.995c-0.638,0.638 -0.996,1.502 -0.996,2.403l0,12.204c0,0.677 0.199,1.309 0.54,1.839Zm-4.019,68.47c-0.046,-0.037 -0.092,-0.075 -0.139,-0.115c-0.239,-0.275 -0.479,-0.584 -0.718,-0.928l-58.988,-81.282c-0.717,-1.073 -0.836,-1.985 -0.358,-2.736c0.478,-0.751 1.434,-1.128 2.869,-1.128l30.3,0c1.433,0 2.658,0.428 3.675,1.282c0.044,0.051 0.087,0.104 0.13,0.157c-0.987,-0.774 -2.163,-1.161 -3.527,-1.161l-30.301,0c-1.434,0 -2.39,0.376 -2.869,1.127c-0.478,0.751 -0.358,1.663 0.359,2.736l58.988,81.282c0.193,0.278 0.386,0.533 0.579,0.766Z" style="fill:#b00d0d;fill-opacity:0.37;"/><path d="M1830.21,112.188l-10.925,-0l0,-0.279l10.641,-0c0.1,0.087 0.195,0.18 0.284,0.279Zm43.872,-39.411l-0,-10.589l0.279,0l-0,10.973l-0.279,-0.384Zm-15.893,56.541c-0.062,-0.048 -0.123,-0.098 -0.185,-0.151c-0.24,-0.275 -0.479,-0.585 -0.718,-0.929l-58.988,-81.282c-0.717,-1.073 -0.837,-1.985 -0.359,-2.736c0.479,-0.751 1.435,-1.127 2.869,-1.127l30.301,0c1.433,0 2.658,0.427 3.675,1.281c0.058,0.069 0.115,0.14 0.172,0.212c-0.977,-0.748 -2.136,-1.122 -3.477,-1.122l-30.3,-0c-1.435,-0 -2.391,0.376 -2.869,1.127c-0.478,0.751 -0.359,1.663 0.358,2.736l58.988,81.282c0.178,0.255 0.356,0.492 0.533,0.709Zm-59.662,0.25c-0.076,-0.047 -0.149,-0.097 -0.221,-0.149c-0.411,-0.562 -0.654,-1.255 -0.654,-2.004l0,-45.044c0,-1.477 0.952,-2.787 2.357,-3.243c1.061,-0.344 2.198,-0.144 3.065,0.49c0.002,0.003 0.004,0.006 0.007,0.009l0.164,0.226c-0.838,-0.525 -1.884,-0.673 -2.865,-0.354c-1.405,0.456 -2.357,1.765 -2.357,3.243l0,45.044c0,0.653 0.185,1.264 0.504,1.782Zm63.692,-68.72c-0.076,-0.047 -0.15,-0.097 -0.222,-0.15c-0.41,-0.561 -0.653,-1.254 -0.653,-2.003l0,-12.204c0,-0.901 0.358,-1.765 0.996,-2.403c0.637,-0.637 1.501,-0.995 2.403,-0.995l27.383,0c0.749,0 1.442,0.243 2.004,0.653c0.052,0.072 0.102,0.146 0.149,0.222c-0.519,-0.32 -1.129,-0.504 -1.783,-0.504l-27.383,-0c-0.901,-0 -1.766,0.358 -2.403,0.995c-0.637,0.637 -0.995,1.502 -0.995,2.403l-0,12.203c-0,0.654 0.184,1.264 0.504,1.783Z" style="fill:#b00d0d;fill-opacity:0.3;"/><path d="M1830.44,112.467l-10.874,-0l0,-0.279l10.646,-0c0.081,0.088 0.157,0.182 0.228,0.279Zm43.923,-39.306l-0,-10.694l0.278,0l0,11.078l-0.278,-0.384Zm-15.987,56.294c-0.012,-0.009 -0.024,-0.017 -0.037,-0.026c-0.049,-0.036 -0.098,-0.073 -0.148,-0.111c-0.177,-0.217 -0.355,-0.454 -0.533,-0.709l-58.988,-81.282c-0.717,-1.073 -0.836,-1.985 -0.358,-2.736c0.478,-0.751 1.434,-1.127 2.869,-1.127l30.3,-0c1.341,-0 2.5,0.374 3.477,1.122c0.057,0.072 0.112,0.146 0.167,0.222c-0.933,-0.649 -2.024,-0.974 -3.273,-0.974l-30.301,0c-1.434,0 -2.39,0.377 -2.868,1.127c-0.478,0.752 -0.359,1.663 0.358,2.736l58.988,81.283c0.116,0.166 0.232,0.325 0.347,0.475Zm-59.61,0.247c-0.081,-0.042 -0.16,-0.086 -0.237,-0.134c-0.319,-0.518 -0.504,-1.129 -0.504,-1.782l0,-45.044c0,-1.478 0.952,-2.787 2.357,-3.243c0.981,-0.319 2.027,-0.171 2.865,0.354l0.194,0.267c-0.806,-0.44 -1.775,-0.547 -2.688,-0.251c-1.406,0.457 -2.357,1.766 -2.357,3.244l-0,45.043c-0,0.557 0.133,1.082 0.37,1.546Zm63.692,-68.721c-0.081,-0.041 -0.16,-0.086 -0.237,-0.133c-0.32,-0.519 -0.504,-1.129 -0.504,-1.783l-0,-12.203c-0,-0.901 0.358,-1.766 0.995,-2.403c0.637,-0.637 1.502,-0.995 2.403,-0.995l27.383,-0c0.654,-0 1.264,0.184 1.783,0.504c0.047,0.077 0.092,0.156 0.133,0.237c-0.463,-0.237 -0.989,-0.371 -1.545,-0.371l-27.383,0c-0.901,0 -1.766,0.358 -2.403,0.996c-0.637,0.637 -0.996,1.501 -0.996,2.403l0,12.203c0,0.556 0.134,1.082 0.371,1.545Z" style="fill:#b00d0d;fill-opacity:0.24;"/><path d="M1830.62,112.745l-10.778,0l0,-0.278l10.595,-0c0.065,0.089 0.127,0.182 0.183,0.278Zm44.018,-39.2l0,-10.799l0.279,0l0,11.183l-0.279,-0.384Zm-16.088,56.021c-0.062,-0.036 -0.12,-0.072 -0.177,-0.111c-0.115,-0.15 -0.231,-0.309 -0.347,-0.475l-58.988,-81.283c-0.717,-1.073 -0.836,-1.984 -0.358,-2.736c0.478,-0.75 1.434,-1.127 2.868,-1.127l30.301,0c1.249,0 2.34,0.325 3.273,0.974c0.029,0.039 0.057,0.079 0.085,0.12l0.086,0.118c-0.888,-0.561 -1.912,-0.841 -3.073,-0.841l-30.301,-0c-1.434,-0 -2.391,0.376 -2.869,1.127c-0.478,0.751 -0.358,1.663 0.359,2.736l58.987,81.282c0.052,0.074 0.103,0.145 0.154,0.216Zm-59.533,0.252c-0.086,-0.035 -0.171,-0.074 -0.254,-0.116c-0.237,-0.464 -0.37,-0.989 -0.37,-1.546l-0,-45.043c-0,-1.478 0.951,-2.787 2.357,-3.244c0.913,-0.296 1.882,-0.189 2.688,0.251l0.208,0.288c-0.771,-0.369 -1.673,-0.445 -2.526,-0.168c-1.405,0.456 -2.357,1.766 -2.357,3.243l0,45.044c0,0.457 0.091,0.893 0.254,1.291Zm63.692,-68.72c-0.086,-0.036 -0.171,-0.075 -0.254,-0.117c-0.237,-0.463 -0.371,-0.989 -0.371,-1.545l0,-12.203c0,-0.902 0.359,-1.766 0.996,-2.403c0.637,-0.638 1.502,-0.996 2.403,-0.996l27.383,0c0.556,0 1.082,0.134 1.545,0.371c0.042,0.083 0.081,0.167 0.117,0.254c-0.398,-0.164 -0.834,-0.254 -1.291,-0.254l-27.384,-0c-0.901,-0 -1.765,0.358 -2.403,0.995c-0.637,0.638 -0.995,1.502 -0.995,2.403l0,12.204c0,0.457 0.09,0.893 0.254,1.291Z" style="fill:#b00d0d;fill-opacity:0.18;"/><path d="M1830.77,113.024l-10.647,0l-0,-0.279l10.499,0c0.054,0.091 0.103,0.184 0.148,0.279Zm44.149,-39.095l0,-10.904l0.279,-0l0,11.288l-0.279,-0.384Zm-16.198,55.726c-0.058,-0.028 -0.115,-0.058 -0.169,-0.089c-0.051,-0.071 -0.102,-0.142 -0.154,-0.216l-58.987,-81.282c-0.717,-1.073 -0.837,-1.985 -0.359,-2.736c0.478,-0.751 1.435,-1.127 2.869,-1.127l30.301,-0c1.161,-0 2.185,0.28 3.073,0.841l0.19,0.262c-0.845,-0.488 -1.81,-0.732 -2.893,-0.732l-30.3,-0c-1.435,-0 -2.391,0.376 -2.869,1.127c-0.478,0.751 -0.359,1.663 0.358,2.736l58.94,81.216Zm-59.43,0.262c-0.092,-0.029 -0.183,-0.062 -0.272,-0.099c-0.163,-0.398 -0.254,-0.834 -0.254,-1.291l0,-45.044c0,-1.477 0.952,-2.787 2.357,-3.243c0.853,-0.277 1.755,-0.201 2.526,0.168l0.22,0.303c-0.736,-0.31 -1.577,-0.359 -2.375,-0.1c-1.405,0.456 -2.357,1.765 -2.357,3.243l0,45.044c0,0.355 0.054,0.697 0.155,1.019Zm63.692,-68.721c-0.092,-0.029 -0.183,-0.062 -0.272,-0.098c-0.164,-0.398 -0.254,-0.834 -0.254,-1.291l0,-12.204c0,-0.901 0.358,-1.765 0.995,-2.403c0.638,-0.637 1.502,-0.995 2.403,-0.995l27.384,-0c0.457,-0 0.893,0.09 1.291,0.254c0.036,0.089 0.069,0.18 0.098,0.272c-0.321,-0.101 -0.664,-0.155 -1.019,-0.155l-27.383,-0c-0.901,-0 -1.766,0.358 -2.403,0.995c-0.637,0.637 -0.995,1.502 -0.995,2.403l-0,12.203c-0,0.355 0.054,0.698 0.155,1.019Z" style="fill:#b00d0d;fill-opacity:0.13;"/><path d="M1830.89,113.303l-10.484,0l-0,-0.279l10.368,0c0.043,0.091 0.081,0.184 0.116,0.279Zm44.312,-38.99l0,-11.009l0.279,-0l0,11.393l-0.279,-0.384Zm-16.326,55.41c-0.051,-0.022 -0.102,-0.044 -0.151,-0.068l-58.94,-81.216c-0.717,-1.073 -0.836,-1.985 -0.358,-2.736c0.478,-0.751 1.434,-1.127 2.869,-1.127l30.3,-0c1.083,-0 2.048,0.244 2.893,0.732l0.201,0.276c-0.804,-0.425 -1.712,-0.638 -2.723,-0.638l-30.301,0c-1.434,0 -2.39,0.376 -2.868,1.127c-0.479,0.752 -0.359,1.663 0.358,2.736l58.72,80.914Zm-59.288,0.271c-0.099,-0.021 -0.197,-0.047 -0.293,-0.077c-0.101,-0.322 -0.155,-0.664 -0.155,-1.019l0,-45.044c0,-1.478 0.952,-2.787 2.357,-3.243c0.798,-0.259 1.639,-0.21 2.375,0.1l0.229,0.314c-0.702,-0.258 -1.487,-0.286 -2.233,-0.044c-1.406,0.457 -2.357,1.766 -2.357,3.244l-0,45.043c-0,0.25 0.026,0.493 0.077,0.726Zm63.692,-68.72c-0.099,-0.022 -0.197,-0.048 -0.293,-0.078c-0.101,-0.321 -0.155,-0.664 -0.155,-1.019l-0,-12.203c-0,-0.901 0.358,-1.766 0.995,-2.403c0.637,-0.637 1.502,-0.995 2.403,-0.995l27.383,-0c0.355,-0 0.698,0.054 1.019,0.155c0.03,0.096 0.056,0.194 0.078,0.293c-0.234,-0.051 -0.477,-0.078 -0.726,-0.078l-27.383,0c-0.902,0 -1.766,0.358 -2.403,0.996c-0.638,0.637 -0.996,1.501 -0.996,2.403l0,12.203c0,0.249 0.027,0.492 0.078,0.726Z" style="fill:#b00d0d;fill-opacity:0.08;"/><path d="M1830.98,113.582l-10.294,-0l-0,-0.279l10.205,0c0.034,0.091 0.063,0.184 0.089,0.279Zm44.502,-38.885l0,-11.114l0.279,-0l-0,11.499l-0.279,-0.385Zm-16.463,55.082c-0.048,-0.018 -0.095,-0.037 -0.142,-0.056l-58.72,-80.914c-0.717,-1.073 -0.837,-1.984 -0.358,-2.736c0.478,-0.751 1.434,-1.127 2.868,-1.127l30.301,0c1.011,0 1.919,0.213 2.723,0.638l0.21,0.289c-0.764,-0.371 -1.618,-0.556 -2.562,-0.556l-30.301,-0c-1.434,-0 -2.391,0.376 -2.869,1.127c-0.478,0.751 -0.359,1.663 0.359,2.736l58.491,80.599Zm-59.112,0.269c-0.108,-0.013 -0.214,-0.031 -0.318,-0.054c-0.051,-0.233 -0.077,-0.476 -0.077,-0.726l-0,-45.043c-0,-1.478 0.951,-2.787 2.357,-3.244c0.746,-0.242 1.531,-0.214 2.233,0.044l0.235,0.324c-0.667,-0.214 -1.399,-0.224 -2.098,0.003c-1.405,0.456 -2.357,1.766 -2.357,3.243l0,45.044c0,0.138 0.009,0.275 0.025,0.409Zm63.691,-68.721c-0.107,-0.012 -0.213,-0.03 -0.317,-0.053c-0.051,-0.234 -0.078,-0.477 -0.078,-0.726l0,-12.203c0,-0.902 0.358,-1.766 0.996,-2.403c0.637,-0.638 1.501,-0.996 2.403,-0.996l27.383,0c0.249,0 0.492,0.027 0.726,0.078c0.023,0.104 0.041,0.21 0.053,0.317c-0.134,-0.016 -0.27,-0.024 -0.408,-0.024l-27.384,-0c-0.901,-0 -1.765,0.358 -2.403,0.995c-0.637,0.638 -0.995,1.502 -0.995,2.403l0,12.204c0,0.138 0.008,0.274 0.024,0.408Z" style="fill:#b00d0d;fill-opacity:0.05;"/><path d="M1831.04,113.861l-10.078,-0l-0,-0.279l10.015,-0c0.024,0.091 0.045,0.184 0.063,0.279Zm44.718,-38.779l-0,-11.221l0.279,0l-0,11.605l-0.279,-0.384Zm-16.476,54.783c-0.092,-0.026 -0.18,-0.055 -0.266,-0.086l-58.491,-80.599c-0.718,-1.073 -0.837,-1.985 -0.359,-2.736c0.478,-0.751 1.435,-1.127 2.869,-1.127l30.301,-0c0.944,-0 1.798,0.185 2.562,0.556l0.44,0.607c-0.685,-0.281 -1.439,-0.422 -2.261,-0.422l-30.301,0c-1.434,0 -2.39,0.376 -2.868,1.127c-0.479,0.752 -0.359,1.663 0.358,2.736l58.016,79.944Zm-58.661,0.207l-0.308,0c-0.139,0 -0.275,-0.008 -0.409,-0.024c-0.016,-0.134 -0.025,-0.271 -0.025,-0.409l0,-45.044c0,-1.477 0.952,-2.787 2.357,-3.243c0.699,-0.227 1.431,-0.217 2.098,-0.003l0.486,0.67c-0.595,-0.142 -1.232,-0.124 -1.842,0.074c-1.406,0.456 -2.357,1.766 -2.357,3.243l-0,44.736Zm63.691,-68.72l-0.308,-0c-0.138,-0 -0.275,-0.009 -0.409,-0.025c-0.016,-0.134 -0.024,-0.27 -0.024,-0.408l0,-12.204c0,-0.901 0.358,-1.765 0.995,-2.403c0.638,-0.637 1.502,-0.995 2.403,-0.995l27.384,-0c0.138,-0 0.274,0.008 0.408,0.024c0.017,0.134 0.025,0.271 0.025,0.409l-0,0.308l-27.075,0c-0.902,0 -1.766,0.358 -2.403,0.996c-0.638,0.637 -0.996,1.501 -0.996,2.402l0,11.896Z" style="fill:#b00d0d;fill-opacity:0.02;"/></g><g id="Fade-in" serif:id="Fade in"><rect x="1818.38" y="111.072" width="9.314" height="0.279" style="fill:url(#_Linear1);"/><rect x="1818.66" y="111.351" width="9.314" height="0.279" style="fill:url(#_Linear2);"/><rect x="1818.94" y="111.63" width="9.314" height="0.279" style="fill:url(#_Linear3);"/><rect x="1819.22" y="111.909" width="9.314" height="0.279" style="fill:url(#_Linear4);"/><rect x="1819.5" y="112.188" width="9.314" height="0.279" style="fill:url(#_Linear5);"/><rect x="1819.78" y="112.467" width="9.314" height="0.279" style="fill:url(#_Linear6);"/><rect x="1820.06" y="112.745" width="9.314" height="0.279" style="fill:url(#_Linear7);"/><rect x="1820.33" y="113.024" width="9.314" height="0.279" style="fill:url(#_Linear8);"/><rect x="1820.61" y="113.303" width="9.314" height="0.279" style="fill:url(#_Linear9);"/><rect x="1820.89" y="113.582" width="9.314" height="0.279" style="fill:url(#_Linear10);"/><path d="M1873.53,70.596l-0.279,-0l0,-9.314l0.279,0l0,9.314Z" style="fill:url(#_Linear11);"/><path d="M1873.81,70.875l-0.279,-0l0,-9.314l0.279,-0l-0,9.314Z" style="fill:url(#_Linear12);"/><path d="M1874.09,71.153l-0.279,0l-0,-9.313l0.279,-0l-0,9.313Z" style="fill:url(#_Linear13);"/><path d="M1874.36,71.432l-0.279,0l-0,-9.313l0.279,-0l-0,9.313Z" style="fill:url(#_Linear14);"/><path d="M1874.64,71.711l-0.278,0l-0,-9.314l0.278,0l0,9.314Z" style="fill:url(#_Linear15);"/><path d="M1874.92,71.99l-0.279,-0l0,-9.314l0.279,0l0,9.314Z" style="fill:url(#_Linear16);"/><path d="M1875.2,72.269l-0.279,-0l0,-9.314l0.279,0l0,9.314Z" style="fill:url(#_Linear17);"/><path d="M1875.48,72.548l-0.279,-0l0,-9.314l0.279,0l0,9.314Z" style="fill:url(#_Linear18);"/><path d="M1875.76,72.827l-0.279,-0l0,-9.314l0.279,-0l-0,9.314Z" style="fill:url(#_Linear19);"/><path d="M1876.04,73.105l-0.279,0l-0,-9.313l0.279,-0l-0,9.313Z" style="fill:url(#_Linear20);"/></g></g></g></g><defs><linearGradient id="_Linear1" x1="0" y1="0" x2="1" y2="0" gradientUnits="userSpaceOnUse" gradientTransform="matrix(9.24394,1.63471e-08,-1.63471e-08,9.24394,1818.45,111.212)"><stop offset="0" style="stop-color:#fff;stop-opacity:1"/><stop offset="0.35" style="stop-color:#fff;stop-opacity:0.14"/><stop offset="1" style="stop-color:#fff;stop-opacity:0"/></linearGradient><linearGradient id="_Linear2" x1="0" y1="0" x2="1" y2="0" gradientUnits="userSpaceOnUse" gradientTransform="matrix(9.24394,1.63471e-08,-1.63471e-08,9.24394,1818.73,111.491)"><stop offset="0" style="stop-color:#fff;stop-opacity:1"/><stop offset="0.35" style="stop-color:#fff;stop-opacity:0.14"/><stop offset="1" style="stop-color:#fff;stop-opacity:0"/></linearGradient><linearGradient id="_Linear3" x1="0" y1="0" x2="1" y2="0" gradientUnits="userSpaceOnUse" gradientTransform="matrix(9.24394,1.63471e-08,-1.63471e-08,9.24394,1819.01,111.769)"><stop offset="0" style="stop-color:#fff;stop-opacity:1"/><stop offset="0.35" style="stop-color:#fff;stop-opacity:0.14"/><stop offset="1" style="stop-color:#fff;stop-opacity:0"/></linearGradient><linearGradient id="_Linear4" x1="0" y1="0" x2="1" y2="0" gradientUnits="userSpaceOnUse" gradientTransform="matrix(9.24394,1.63471e-08,-1.63471e-08,9.24394,1819.29,112.048)"><stop offset="0" style="stop-color:#fff;stop-opacity:1"/><stop offset="0.35" style="stop-color:#fff;stop-opacity:0.14"/><stop offset="1" style="stop-color:#fff;stop-opacity:0"/></linearGradient><linearGradient id="_Linear5" x1="0" y1="0" x2="1" y2="0" gradientUnits="userSpaceOnUse" gradientTransform="matrix(9.24394,1.63471e-08,-1.63471e-08,9.24394,1819.57,112.327)"><stop offset="0" style="stop-color:#fff;stop-opacity:1"/><stop offset="0.35" style="stop-color:#fff;stop-opacity:0.14"/><stop offset="1" style="stop-color:#fff;stop-opacity:0"/></linearGradient><linearGradient id="_Linear6" x1="0" y1="0" x2="1" y2="0" gradientUnits="userSpaceOnUse" gradientTransform="matrix(9.24394,1.63471e-08,-1.63471e-08,9.24394,1819.85,112.606)"><stop offset="0" style="stop-color:#fff;stop-opacity:1"/><stop offset="0.35" style="stop-color:#fff;stop-opacity:0.14"/><stop offset="1" style="stop-color:#fff;stop-opacity:0"/></linearGradient><linearGradient id="_Linear7" x1="0" y1="0" x2="1" y2="0" gradientUnits="userSpaceOnUse" gradientTransform="matrix(9.24394,1.63471e-08,-1.63471e-08,9.24394,1820.12,112.885)"><stop offset="0" style="stop-color:#fff;stop-opacity:1"/><stop offset="0.35" style="stop-color:#fff;stop-opacity:0.14"/><stop offset="1" style="stop-color:#fff;stop-opacity:0"/></linearGradient><linearGradient id="_Linear8" x1="0" y1="0" x2="1" y2="0" gradientUnits="userSpaceOnUse" gradientTransform="matrix(9.24394,1.63471e-08,-1.63471e-08,9.24394,1820.4,113.164)"><stop offset="0" style="stop-color:#fff;stop-opacity:1"/><stop offset="0.35" style="stop-color:#fff;stop-opacity:0.14"/><stop offset="1" style="stop-color:#fff;stop-opacity:0"/></linearGradient><linearGradient id="_Linear9" x1="0" y1="0" x2="1" y2="0" gradientUnits="userSpaceOnUse" gradientTransform="matrix(9.24394,1.63471e-08,-1.63471e-08,9.24394,1820.68,113.443)"><stop offset="0" style="stop-color:#fff;stop-opacity:1"/><stop offset="0.35" style="stop-color:#fff;stop-opacity:0.14"/><stop offset="1" style="stop-color:#fff;stop-opacity:0"/></linearGradient><linearGradient id="_Linear10" x1="0" y1="0" x2="1" y2="0" gradientUnits="userSpaceOnUse" gradientTransform="matrix(9.24394,1.63471e-08,-1.63471e-08,9.24394,1820.96,113.721)"><stop offset="0" style="stop-color:#fff;stop-opacity:1"/><stop offset="0.35" style="stop-color:#fff;stop-opacity:0.14"/><stop offset="1" style="stop-color:#fff;stop-opacity:0"/></linearGradient><linearGradient id="_Linear11" x1="0" y1="0" x2="1" y2="0" gradientUnits="userSpaceOnUse" gradientTransform="matrix(-1.63471e-08,9.24394,-9.24394,-1.63471e-08,1873.39,61.3518)"><stop offset="0" style="stop-color:#fff;stop-opacity:1"/><stop offset="0.35" style="stop-color:#fff;stop-opacity:0.14"/><stop offset="1" style="stop-color:#fff;stop-opacity:0"/></linearGradient><linearGradient id="_Linear12" x1="0" y1="0" x2="1" y2="0" gradientUnits="userSpaceOnUse" gradientTransform="matrix(-1.63471e-08,9.24394,-9.24394,-1.63471e-08,1873.67,61.6306)"><stop offset="0" style="stop-color:#fff;stop-opacity:1"/><stop offset="0.35" style="stop-color:#fff;stop-opacity:0.14"/><stop offset="1" style="stop-color:#fff;stop-opacity:0"/></linearGradient><linearGradient id="_Linear13" x1="0" y1="0" x2="1" y2="0" gradientUnits="userSpaceOnUse" gradientTransform="matrix(-1.63471e-08,9.24394,-9.24394,-1.63471e-08,1873.95,61.9095)"><stop offset="0" style="stop-color:#fff;stop-opacity:1"/><stop offset="0.35" style="stop-color:#fff;stop-opacity:0.14"/><stop offset="1" style="stop-color:#fff;stop-opacity:0"/></linearGradient><linearGradient id="_Linear14" x1="0" y1="0" x2="1" y2="0" gradientUnits="userSpaceOnUse" gradientTransform="matrix(-1.63471e-08,9.24394,-9.24394,-1.63471e-08,1874.22,62.1883)"><stop offset="0" style="stop-color:#fff;stop-opacity:1"/><stop offset="0.35" style="stop-color:#fff;stop-opacity:0.14"/><stop offset="1" style="stop-color:#fff;stop-opacity:0"/></linearGradient><linearGradient id="_Linear15" x1="0" y1="0" x2="1" y2="0" gradientUnits="userSpaceOnUse" gradientTransform="matrix(-1.63471e-08,9.24394,-9.24394,-1.63471e-08,1874.5,62.4672)"><stop offset="0" style="stop-color:#fff;stop-opacity:1"/><stop offset="0.35" style="stop-color:#fff;stop-opacity:0.14"/><stop offset="1" style="stop-color:#fff;stop-opacity:0"/></linearGradient><linearGradient id="_Linear16" x1="0" y1="0" x2="1" y2="0" gradientUnits="userSpaceOnUse" gradientTransform="matrix(-1.63471e-08,9.24394,-9.24394,-1.63471e-08,1874.78,62.746)"><stop offset="0" style="stop-color:#fff;stop-opacity:1"/><stop offset="0.35" style="stop-color:#fff;stop-opacity:0.14"/><stop offset="1" style="stop-color:#fff;stop-opacity:0"/></linearGradient><linearGradient id="_Linear17" x1="0" y1="0" x2="1" y2="0" gradientUnits="userSpaceOnUse" gradientTransform="matrix(-1.63471e-08,9.24394,-9.24394,-1.63471e-08,1875.06,63.0249)"><stop offset="0" style="stop-color:#fff;stop-opacity:1"/><stop offset="0.35" style="stop-color:#fff;stop-opacity:0.14"/><stop offset="1" style="stop-color:#fff;stop-opacity:0"/></linearGradient><linearGradient id="_Linear18" x1="0" y1="0" x2="1" y2="0" gradientUnits="userSpaceOnUse" gradientTransform="matrix(-1.63471e-08,9.24394,-9.24394,-1.63471e-08,1875.34,63.3038)"><stop offset="0" style="stop-color:#fff;stop-opacity:1"/><stop offset="0.35" style="stop-color:#fff;stop-opacity:0.14"/><stop offset="1" style="stop-color:#fff;stop-opacity:0"/></linearGradient><linearGradient id="_Linear19" x1="0" y1="0" x2="1" y2="0" gradientUnits="userSpaceOnUse" gradientTransform="matrix(-1.63471e-08,9.24394,-9.24394,-1.63471e-08,1875.62,63.5826)"><stop offset="0" style="stop-color:#fff;stop-opacity:1"/><stop offset="0.35" style="stop-color:#fff;stop-opacity:0.14"/><stop offset="1" style="stop-color:#fff;stop-opacity:0"/></linearGradient><linearGradient id="_Linear20" x1="0" y1="0" x2="1" y2="0" gradientUnits="userSpaceOnUse" gradientTransform="matrix(-1.63471e-08,9.24394,-9.24394,-1.63471e-08,1875.9,63.8615)"><stop offset="0" style="stop-color:#fff;stop-opacity:1"/><stop offset="0.35" style="stop-color:#fff;stop-opacity:0.14"/><stop offset="1" style="stop-color:#fff;stop-opacity:0"/></linearGradient></defs></svg>